# xmcd
#
# Track frame offsets:
#	150
#	3725
#	24985
#	44610
#	47425
#	73585
#	76785
#	95020
#	96580
#	115115
#	135300
#	136465
#	164665
#	170645
#	178340
#	189570
#	195305
#	222025
#	244110
#
# Disc length: 3300 seconds
#
# Revision: 0
# Processed by: cddbd v1.5.1PL0 Copyright (c) Steve Scherf et al.
# Submitted via: dBpowerAMP V4.0
#
DISCID=0b0ce213
DTITLE=Corey Harris - Greens From The Garden
DYEAR=1999
DGENRE=Blues
TTITLE0=Introduction to the greens
TTITLE1=Basehead
TTITLE2=Honeysuckle
TTITLE3=Tapado
TTITLE4=Eh la bas
TTITLE5=Interlude
TTITLE6=Wild west
TTITLE7=In the kitchen with Momma
TTITLE8=Sweet black angel
TTITLE9=Pas parlez
TTITLE10=Interlude (2)
TTITLE11=Lynch blues
TTITLE12=Greens back in the day
TTITLE13=Congo square rag
TTITLE14=Diddy wah diddy
TTITLE15=Ites
TTITLE16=Just a closer walk with thee
TTITLE17=Nola rag
TTITLE18=Epilogue
EXTD=
EXTT0=
EXTT1=
EXTT2=
EXTT3=
EXTT4=
EXTT5=
EXTT6=
EXTT7=
EXTT8=
EXTT9=
EXTT10=
EXTT11=
EXTT12=
EXTT13=
EXTT14=
EXTT15=
EXTT16=
EXTT17=
EXTT18=
PLAYORDER=
